<?xml version="1.0" encoding="utf-8" standalone="no"?>
<!DOCTYPE svg PUBLIC "-//W3C//DTD SVG 1.1//EN" "http://www.w3.org/Graphics/SVG/1.1/DTD/svg11.dtd">
<svg version="1.1" width="595,2pt" height="841,92pt" viewBox="0 0 595.2 841.92" overflow="visible" xmlns="http://www.w3.org/2000/svg">
  <path d="M440.2476,716.7767 L419.1158,744.9804 L388.7984,744.9804 L441.754,674.3029 L402.0768,591.0585 L387.2726,559.9988 L467.2411,559.9988 L490.6302,609.0699 L527.3971,559.9988 L557.7145,559.9988 L502.4178,633.8008 L555.4099,744.9804 L475.4414,744.9804 L453.5416,699.0338 z" stroke="Black" stroke-width="0" fill="#000000" fill-opacity="1" />
  <path d="M35.85583,547.8675 L35.85583,50.07145 L557.7145,50.07145 L557.7145,547.8675 z" stroke="Black" stroke-width="0" fill="#000000" fill-opacity="1" />
  <path d="M313.4066,609.0699 L350.1735,559.9988 L380.4909,559.9988 L325.1942,633.8008 L378.1863,744.9804 L298.2178,744.9804 L276.3181,699.0338 L263.024,716.7767 L241.8923,744.9804 L211.5748,744.9804 L264.5304,674.3029 L224.8532,591.0585 L210.049,559.9988 L290.0175,559.9988 z" stroke="Black" stroke-width="0" fill="#000000" fill-opacity="1" />
  <path d="M108.0438,559.9988 L130.6025,559.9988 C147.4408,559.5511 167.6978,567.1928 181.6471,581.1422 C195.5964,595.0915 203.2381,615.3484 202.7905,632.1867 L202.7905,744.9804 L178.5278,744.9804 L178.5278,697.8696 L108.0438,697.8696 L108.0438,744.9804 L35.85583,744.9804 L35.85583,559.9988 z M178.5278,673.6071 L178.5278,632.1867 C178.825,621.0078 173.7517,607.5593 164.4908,598.2984 C155.2299,589.0375 141.7814,583.9642 130.6025,584.2614 L108.0438,584.2614 L108.0438,673.6071 z" stroke="Black" stroke-width="0" fill="#000000" fill-opacity="1" />
  <path d="M557.7145,327.1918 L557.7145,337.3132 L524.6633,337.3132 C522.173,337.5656 519.3501,334.7427 519.6025,332.2525 C519.3501,329.7623 522.173,326.9393 524.6633,327.1918 z" stroke="Black" stroke-width="0" fill="#FFFFFF" fill-opacity="1" />
  <path d="M473.0996,50.07145 L483.221,50.07145 L483.221,83.1227 C483.4735,85.61291 480.6505,88.43585 478.1603,88.1834 C475.6701,88.43585 472.8472,85.61291 473.0996,83.1227 z" stroke="Black" stroke-width="0" fill="#FFFFFF" fill-opacity="1" />
  <path d="M35.85182,165.2494 L68.90307,165.2494 C71.39327,164.9969 74.21622,167.8199 73.96377,170.3101 C74.21622,172.8003 71.39327,175.6232 68.90307,175.3708 L35.85182,175.3708 z" stroke="Black" stroke-width="0" fill="#FFFFFF" fill-opacity="1" />
  <path d="M392.1284,50.07145 L402.2498,50.07145 L402.2498,83.1227 C402.5023,85.61291 399.6793,88.43585 397.1891,88.1834 C394.6989,88.43585 391.8759,85.61291 392.1284,83.1227 z" stroke="Black" stroke-width="0" fill="#FFFFFF" fill-opacity="1" />
  <path d="M557.7225,256.342 L524.6713,256.342 C522.1811,256.5945 519.3582,253.7715 519.6106,251.2813 C519.3582,248.7911 522.1811,245.9681 524.6713,246.2206 L557.7225,246.2206 z" stroke="Black" stroke-width="0" fill="#FFFFFF" fill-opacity="1" />
  <path d="M557.7225,205.735 L557.7225,215.8564 L524.6713,215.8564 C522.1811,216.1088 519.3582,213.2859 519.6106,210.7957 C519.3582,208.3055 522.1811,205.4825 524.6713,205.735 z" stroke="Black" stroke-width="0" fill="#FFFFFF" fill-opacity="1" />
  <path d="M361.7642,50.07145 L361.7642,83.1227 C362.0167,85.61291 359.1937,88.43585 356.7035,88.1834 C354.2133,88.43585 351.3904,85.61291 351.6428,83.1227 L351.6428,50.07145 z" stroke="Black" stroke-width="0" fill="#FFFFFF" fill-opacity="1" />
  <path d="M160.9563,50.07145 L160.9563,83.1227 C161.2088,85.61291 158.3858,88.43585 155.8956,88.1834 C153.4054,88.43585 150.5825,85.61291 150.8349,83.1227 L150.8349,50.07145 z" stroke="Black" stroke-width="0" fill="#FFFFFF" fill-opacity="1" />
  <path d="M442.7354,50.07145 L442.7354,83.1227 C442.9879,85.61291 440.1649,88.43585 437.6747,88.1834 C435.1845,88.43585 432.3615,85.61291 432.614,83.1227 L432.614,50.07145 z" stroke="Black" stroke-width="0" fill="#FFFFFF" fill-opacity="1" />
  <path d="M557.7185,175.3708 L524.6673,175.3708 C522.1771,175.6232 519.3541,172.8003 519.6066,170.3101 C519.3541,167.8199 522.1771,164.9969 524.6673,165.2494 L557.7185,165.2494 z" stroke="Black" stroke-width="0" fill="#FFFFFF" fill-opacity="1" />
  <path d="M241.9276,50.07145 L241.9276,83.1227 C242.18,85.61291 239.3571,88.43585 236.8669,88.1834 C234.3766,88.43585 231.5537,85.61291 231.8062,83.1227 L231.8062,50.07145 z" stroke="Black" stroke-width="0" fill="#FFFFFF" fill-opacity="1" />
  <path d="M35.8478,246.2206 L68.89906,246.2206 C71.38926,245.9681 74.21221,248.7911 73.95975,251.2813 C74.21221,253.7715 71.38926,256.5945 68.89906,256.342 L35.8478,256.342 z" stroke="Black" stroke-width="0" fill="#FFFFFF" fill-opacity="1" />
  <path d="M120.4707,50.07145 L120.4707,83.1227 C120.7232,85.61291 117.9002,88.43585 115.41,88.1834 C112.9198,88.43585 110.0969,85.61291 110.3493,83.1227 L110.3493,50.07145 z" stroke="Black" stroke-width="0" fill="#FFFFFF" fill-opacity="1" />
  <path d="M35.8478,205.735 L68.89906,205.735 C71.38926,205.4825 74.21221,208.3055 73.95975,210.7957 C74.21221,213.2859 71.38926,216.1088 68.89906,215.8564 L35.8478,215.8564 z" stroke="Black" stroke-width="0" fill="#FFFFFF" fill-opacity="1" />
  <path d="M35.85583,327.1918 L68.90708,327.1918 C71.39729,326.9393 74.22024,329.7623 73.96778,332.2525 C74.22024,334.7427 71.39729,337.5656 68.90708,337.3132 L35.85583,337.3132 z" stroke="Black" stroke-width="0" fill="#FFFFFF" fill-opacity="1" />
  <path d="M201.4419,50.07145 L201.4419,83.1227 C201.6944,85.61291 198.8714,88.43585 196.3812,88.1834 C193.891,88.43585 191.0681,85.61291 191.3205,83.1227 L191.3205,50.07145 z" stroke="Black" stroke-width="0" fill="#FFFFFF" fill-opacity="1" />
  <path d="M35.84783,205.735 L35.84783,215.8564" stroke="#FFFFFF" stroke-width="8.4" fill="none" />
  <path d="M150.8349,50.07145 L150.8349,83.1227 C150.5825,85.61291 153.4054,88.43585 155.8956,88.1834 C158.3858,88.43585 161.2088,85.61291 160.9563,83.1227 L160.9563,50.07145" stroke="#FFFFFF" stroke-width="8.4" fill="none" />
  <path d="M231.8062,50.07146 L241.9276,50.07146" stroke="#FFFFFF" stroke-width="8.4" fill="none" />
  <path d="M351.6428,50.07146 L361.7642,50.07146" stroke="#FFFFFF" stroke-width="8.4" fill="none" />
  <path d="M164.6349,365.5558 C160.7424,368.7317 160.7424,376.7445 164.6349,379.9204 C167.8108,383.8129 175.8236,383.8129 178.9995,379.9204 C182.8919,376.7445 182.8919,368.7317 178.9995,365.5558 C175.8236,361.6633 167.8108,361.6633 164.6349,365.5558 z" stroke="#FFFFFF" stroke-width="8.4" fill="none" />
  <path d="M392.1284,50.07146 L402.2498,50.07146" stroke="#FFFFFF" stroke-width="8.4" fill="none" />
  <path d="M357.4346,210.7957 L357.4346,251.2773" stroke="#FFFFFF" stroke-width="8.4" fill="none" />
  <path d="M191.3206,50.07146 L201.442,50.07146" stroke="#FFFFFF" stroke-width="8.4" fill="none" />
  <path d="M150.835,50.07146 L160.9564,50.07146" stroke="#FFFFFF" stroke-width="8.4" fill="none" />
  <path d="M35.85184,165.2494 L35.85184,175.3708" stroke="#FFFFFF" stroke-width="8.4" fill="none" />
  <path d="M432.614,50.07146 L442.7354,50.07146" stroke="#FFFFFF" stroke-width="8.4" fill="none" />
  <path d="M316.949,547.8675 L316.949,170.464" stroke="#FFFFFF" stroke-width="8.4" fill="none" />
  <path d="M428.9355,365.5558 C432.8279,368.7317 432.8279,376.7445 428.9355,379.9204 C425.7596,383.8129 417.7468,383.8129 414.5709,379.9204 C410.6784,376.7445 410.6784,368.7317 414.5709,365.5558 C417.7468,361.6633 425.7596,361.6633 428.9355,365.5558 z" stroke="#FFFFFF" stroke-width="8.4" fill="none" />
  <path d="M115.4101,110.2738 L115.4101,88.18343" stroke="#FFFFFF" stroke-width="8.4" fill="none" />
  <path d="M473.0996,50.07146 L483.221,50.07146" stroke="#FFFFFF" stroke-width="8.4" fill="none" />
  <path d="M557.7186,165.2494 L557.7186,175.3708" stroke="#FFFFFF" stroke-width="8.4" fill="none" />
  <path d="M136.3449,210.7957 L195.6542,210.7957" stroke="#FFFFFF" stroke-width="8.4" fill="none" />
  <path d="M557.7225,205.735 L557.7225,215.8564" stroke="#FFFFFF" stroke-width="8.4" fill="none" />
  <path d="M136.3449,210.7957 L95.85932,170.3101" stroke="#FFFFFF" stroke-width="8.4" fill="none" />
  <path d="M208.7106,183.3706 C204.8182,186.5465 204.8182,194.5593 208.7106,197.7352 C211.8865,201.6276 219.8993,201.6276 223.0752,197.7352 C226.9677,194.5593 226.9677,186.5465 223.0752,183.3706 C219.8993,179.4781 211.8865,179.4781 208.7106,183.3706 z" stroke="#FFFFFF" stroke-width="8.4" fill="none" />
  <path d="M557.7225,246.2206 L557.7225,256.342" stroke="#FFFFFF" stroke-width="8.4" fill="none" />
  <path d="M236.1358,210.7957 L223.0753,197.7352" stroke="#FFFFFF" stroke-width="8.4" fill="none" />
  <path d="M457.2255,210.7957 L397.9162,210.7957" stroke="#FFFFFF" stroke-width="8.4" fill="none" />
  <path d="M129.1626,244.103 C125.2701,247.2789 125.2701,255.2917 129.1626,258.4676 C132.3385,262.3601 140.3513,262.3601 143.5272,258.4676 C147.4197,255.2917 147.4197,247.2789 143.5272,244.103 C140.3513,240.2105 132.3385,240.2105 129.1626,244.103 z" stroke="#FFFFFF" stroke-width="8.4" fill="none" />
  <path d="M236.8669,130.3937 L236.8669,88.18343" stroke="#FFFFFF" stroke-width="8.4" fill="none" />
  <path d="M276.6214,170.464 L236.8669,130.7095" stroke="#FFFFFF" stroke-width="8.4" fill="none" />
  <path d="M444.857,143.5771 L478.1603,110.2738" stroke="#FFFFFF" stroke-width="8.4" fill="none" />
  <path d="M166.053,332.2505 L236.1378,332.2505" stroke="#FFFFFF" stroke-width="8.4" fill="none" />
  <path d="M148.7133,325.0682 C144.8209,328.2441 144.8209,336.2569 148.7133,339.4328 C151.8892,343.3253 159.9021,343.3253 163.0779,339.4328 C166.9704,336.2569 166.9704,328.2441 163.0779,325.0682 C159.9021,321.1757 151.8892,321.1757 148.7133,325.0682 z" stroke="#FFFFFF" stroke-width="8.4" fill="none" />
  <path d="M212.3048,332.2505 L178.9995,365.5558" stroke="#FFFFFF" stroke-width="8.4" fill="none" />
  <path d="M557.7225,256.342 L524.6713,256.342 C522.1811,256.5945 519.3582,253.7715 519.6106,251.2813 C519.3582,248.7911 522.1811,245.9681 524.6713,246.2206 L557.7225,246.2206" stroke="#FFFFFF" stroke-width="8.4" fill="none" />
  <path d="M276.6214,547.8675 L276.6214,170.464" stroke="#FFFFFF" stroke-width="8.4" fill="none" />
  <path d="M231.8062,50.07145 L231.8062,83.1227 C231.5537,85.61291 234.3766,88.43585 236.8669,88.1834 C239.3571,88.43585 242.18,85.61291 241.9276,83.1227 L241.9276,50.07145" stroke="#FFFFFF" stroke-width="8.4" fill="none" />
  <path d="M191.3205,50.07145 L191.3205,83.1227 C191.0681,85.61291 193.891,88.43585 196.3812,88.1834 C198.8714,88.43585 201.6944,85.61291 201.4419,83.1227 L201.4419,50.07145" stroke="#FFFFFF" stroke-width="8.4" fill="none" />
  <path d="M316.949,210.7917 L397.1891,130.5516" stroke="#FFFFFF" stroke-width="8.4" fill="none" />
  <path d="M110.3493,50.07145 L110.3493,83.1227 C110.0969,85.61291 112.9198,88.43585 115.41,88.1834 C117.9002,88.43585 120.7232,85.61291 120.4707,83.1227 L120.4707,50.07145" stroke="#FFFFFF" stroke-width="8.4" fill="none" />
  <path d="M35.85182,175.3708 L68.90307,175.3708 C71.39327,175.6232 74.21622,172.8003 73.96377,170.3101 C74.21622,167.8199 71.39327,164.9969 68.90307,165.2494 L35.85182,165.2494" stroke="#FFFFFF" stroke-width="8.4" fill="none" />
  <path d="M35.8478,215.8564 L68.89906,215.8564 C71.38926,216.1088 74.21221,213.2859 73.95975,210.7957 C74.21221,208.3055 71.38926,205.4825 68.89906,205.735 L35.8478,205.735" stroke="#FFFFFF" stroke-width="8.4" fill="none" />
  <path d="M35.8478,256.342 L68.89906,256.342 C71.38926,256.5945 74.21221,253.7715 73.95975,251.2813 C74.21221,248.7911 71.38926,245.9681 68.89906,246.2206 L35.8478,246.2206" stroke="#FFFFFF" stroke-width="8.4" fill="none" />
  <path d="M35.85583,337.3132 L68.90708,337.3132 C71.39729,337.5656 74.22024,334.7427 73.96778,332.2525 C74.22024,329.7623 71.39729,326.9393 68.90708,327.1918 L35.85583,327.1918" stroke="#FFFFFF" stroke-width="8.4" fill="none" />
  <path d="M196.3813,130.5516 L196.3813,88.18343" stroke="#FFFFFF" stroke-width="8.4" fill="none" />
  <path d="M73.96378,170.3101 L95.85932,170.3101" stroke="#FFFFFF" stroke-width="8.4" fill="none" />
  <path d="M331.3136,90.63914 C335.2061,93.81503 335.2061,101.8279 331.3136,105.0037 C328.1377,108.8962 320.1249,108.8962 316.949,105.0037 C313.0565,101.8279 313.0565,93.81503 316.949,90.63914 C320.1249,86.74667 328.1377,86.74667 331.3136,90.63914 z" stroke="#FFFFFF" stroke-width="8.4" fill="none" />
  <path d="M148.7133,143.5771 C144.8209,146.7529 144.8209,154.7658 148.7133,157.9417 C151.8892,161.8341 159.9021,161.8341 163.0779,157.9417 C166.9704,154.7658 166.9704,146.7529 163.0779,143.5771 C159.9021,139.6846 151.8892,139.6846 148.7133,143.5771 z" stroke="#FFFFFF" stroke-width="8.4" fill="none" />
  <path d="M557.7145,327.1918 L557.7145,337.3132" stroke="#FFFFFF" stroke-width="8.4" fill="none" />
  <path d="M155.8957,171.0372 L155.8957,160.9167" stroke="#FFFFFF" stroke-width="8.4" fill="none" />
  <path d="M155.8957,140.6021 L155.8957,88.18343" stroke="#FFFFFF" stroke-width="8.4" fill="none" />
  <path d="M35.85585,327.1918 L35.85585,337.3132" stroke="#FFFFFF" stroke-width="8.4" fill="none" />
  <path d="M73.96781,332.2525 L95.85932,332.2525" stroke="#FFFFFF" stroke-width="8.4" fill="none" />
  <path d="M148.7134,143.5771 L115.4101,110.2738" stroke="#FFFFFF" stroke-width="8.4" fill="none" />
  <path d="M136.3469,291.7649 L95.85932,332.2525" stroke="#FFFFFF" stroke-width="8.4" fill="none" />
  <path d="M195.6542,291.7649 L136.3449,291.7649" stroke="#FFFFFF" stroke-width="8.4" fill="none" />
  <path d="M262.2567,90.63914 C258.3643,93.81503 258.3643,101.8279 262.2567,105.0037 C265.4326,108.8962 273.4455,108.8962 276.6213,105.0037 C280.5138,101.8279 280.5138,93.81503 276.6213,90.63914 C273.4455,86.74667 265.4326,86.74667 262.2567,90.63914 z" stroke="#FFFFFF" stroke-width="8.4" fill="none" />
  <path d="M276.6214,372.7341 L236.1378,332.2505" stroke="#FFFFFF" stroke-width="8.4" fill="none" />
  <path d="M464.4077,244.103 L497.7151,210.7957" stroke="#FFFFFF" stroke-width="8.4" fill="none" />
  <path d="M447.0681,251.2813 L397.9162,251.2813" stroke="#FFFFFF" stroke-width="8.4" fill="none" />
  <path d="M519.6106,251.2813 L467.3828,251.2813" stroke="#FFFFFF" stroke-width="8.4" fill="none" />
  <path d="M356.7035,130.3937 L331.3136,105.0038" stroke="#FFFFFF" stroke-width="8.4" fill="none" />
  <path d="M35.84783,246.2206 L35.84783,256.342" stroke="#FFFFFF" stroke-width="8.4" fill="none" />
  <path d="M225.9805,291.7649 L195.6542,291.7649" stroke="#FFFFFF" stroke-width="8.4" fill="none" />
  <path d="M437.6747,140.6021 L437.6747,88.18343" stroke="#FFFFFF" stroke-width="8.4" fill="none" />
  <path d="M437.6747,171.0372 L437.6747,160.9167" stroke="#FFFFFF" stroke-width="8.4" fill="none" />
  <path d="M444.857,143.5771 C448.7495,146.7529 448.7495,154.7658 444.857,157.9417 C441.6811,161.8341 433.6683,161.8341 430.4924,157.9417 C426.5999,154.7658 426.5999,146.7529 430.4924,143.5771 C433.6683,139.6846 441.6811,139.6846 444.857,143.5771 z" stroke="#FFFFFF" stroke-width="8.4" fill="none" />
  <path d="M357.4346,210.7957 L370.4951,197.7352" stroke="#FFFFFF" stroke-width="8.4" fill="none" />
  <path d="M384.8597,183.3706 C388.7522,186.5465 388.7522,194.5593 384.8597,197.7352 C381.6838,201.6276 373.671,201.6276 370.4951,197.7352 C366.6027,194.5593 366.6027,186.5465 370.4951,183.3706 C373.671,179.4781 381.6838,179.4781 384.8597,183.3706 z" stroke="#FFFFFF" stroke-width="8.4" fill="none" />
  <path d="M457.2255,210.7957 L497.7111,170.3101" stroke="#FFFFFF" stroke-width="8.4" fill="none" />
  <path d="M276.6214,291.7629 L155.8957,171.0372" stroke="#FFFFFF" stroke-width="8.4" fill="none" />
  <path d="M464.4077,244.103 C468.3002,247.2789 468.3002,255.2917 464.4077,258.4676 C461.2318,262.3601 453.219,262.3601 450.0432,258.4676 C446.1507,255.2917 446.1507,247.2789 450.0432,244.103 C453.219,240.2105 461.2318,240.2105 464.4077,244.103 z" stroke="#FFFFFF" stroke-width="8.4" fill="none" />
  <path d="M356.7035,130.3937 L356.7035,88.18343" stroke="#FFFFFF" stroke-width="8.4" fill="none" />
  <path d="M316.949,170.464 L356.7035,130.7095" stroke="#FFFFFF" stroke-width="8.4" fill="none" />
  <path d="M478.1603,110.2738 L478.1603,88.18343" stroke="#FFFFFF" stroke-width="8.4" fill="none" />
  <path d="M427.5174,332.2505 L357.4326,332.2505" stroke="#FFFFFF" stroke-width="8.4" fill="none" />
  <path d="M444.857,325.0682 C448.7495,328.2441 448.7495,336.2569 444.857,339.4328 C441.6811,343.3253 433.6683,343.3253 430.4924,339.4328 C426.5999,336.2569 426.5999,328.2441 430.4924,325.0682 C433.6683,321.1757 441.6811,321.1757 444.857,325.0682 z" stroke="#FFFFFF" stroke-width="8.4" fill="none" />
  <path d="M381.2656,332.2505 L414.5709,365.5558" stroke="#FFFFFF" stroke-width="8.4" fill="none" />
  <path d="M236.8669,130.3937 L262.2568,105.0038" stroke="#FFFFFF" stroke-width="8.4" fill="none" />
  <path d="M276.6214,210.7917 L196.3813,130.5516" stroke="#FFFFFF" stroke-width="8.4" fill="none" />
  <path d="M361.7642,50.07145 L361.7642,83.1227 C362.0167,85.61291 359.1937,88.43585 356.7035,88.1834 C354.2133,88.43585 351.3904,85.61291 351.6428,83.1227 L351.6428,50.07145" stroke="#FFFFFF" stroke-width="8.4" fill="none" />
  <path d="M402.2498,50.07145 L402.2498,83.1227 C402.5023,85.61291 399.6793,88.43585 397.1891,88.1834 C394.6989,88.43585 391.8759,85.61291 392.1284,83.1227 L392.1284,50.07145" stroke="#FFFFFF" stroke-width="8.4" fill="none" />
  <path d="M442.7354,50.07145 L442.7354,83.1227 C442.9879,85.61291 440.1649,88.43585 437.6747,88.1834 C435.1845,88.43585 432.3615,85.61291 432.614,83.1227 L432.614,50.07145" stroke="#FFFFFF" stroke-width="8.4" fill="none" />
  <path d="M483.221,50.07145 L483.221,83.1227 C483.4735,85.61291 480.6505,88.43585 478.1603,88.1834 C475.6701,88.43585 472.8472,85.61291 473.0996,83.1227 L473.0996,50.07145" stroke="#FFFFFF" stroke-width="8.4" fill="none" />
  <path d="M557.7185,175.3708 L524.6673,175.3708 C522.1771,175.6232 519.3541,172.8003 519.6066,170.3101 C519.3541,167.8199 522.1771,164.9969 524.6673,165.2494 L557.7185,165.2494" stroke="#FFFFFF" stroke-width="8.4" fill="none" />
  <path d="M557.7225,215.8564 L524.6713,215.8564 C522.1811,216.1088 519.3582,213.2859 519.6106,210.7957 C519.3582,208.3055 522.1811,205.4825 524.6713,205.735 L557.7225,205.735" stroke="#FFFFFF" stroke-width="8.4" fill="none" />
  <path d="M236.1358,210.7957 L236.1358,251.2773" stroke="#FFFFFF" stroke-width="8.4" fill="none" />
  <path d="M557.7145,337.3132 L524.6633,337.3132 C522.173,337.5656 519.3501,334.7427 519.6025,332.2525 C519.3501,329.7623 522.173,326.9393 524.6633,327.1918 L557.7145,327.1918" stroke="#FFFFFF" stroke-width="8.4" fill="none" />
  <path d="M397.1891,130.5516 L397.1891,88.18343" stroke="#FFFFFF" stroke-width="8.4" fill="none" />
  <path d="M519.6106,210.7957 L497.7151,210.7957" stroke="#FFFFFF" stroke-width="8.4" fill="none" />
  <path d="M519.6066,170.3101 L497.7111,170.3101" stroke="#FFFFFF" stroke-width="8.4" fill="none" />
  <path d="M364.6149,284.5826 L397.9162,251.2813" stroke="#FFFFFF" stroke-width="8.4" fill="none" />
  <path d="M316.949,332.2485 L350.2503,298.9472" stroke="#FFFFFF" stroke-width="8.4" fill="none" />
  <path d="M364.6149,284.5826 C368.5074,287.7585 368.5074,295.7713 364.6149,298.9472 C361.439,302.8397 353.4262,302.8397 350.2503,298.9472 C346.3578,295.7713 346.3578,287.7585 350.2503,284.5826 C353.4262,280.6901 361.439,280.6901 364.6149,284.5826 z" stroke="#FFFFFF" stroke-width="8.4" fill="none" />
  <path d="M73.95978,251.2813 L126.1876,251.2813" stroke="#FFFFFF" stroke-width="8.4" fill="none" />
  <path d="M146.5022,251.2813 L195.6542,251.2813" stroke="#FFFFFF" stroke-width="8.4" fill="none" />
  <path d="M316.949,291.7629 L437.6747,171.0372" stroke="#FFFFFF" stroke-width="8.4" fill="none" />
  <path d="M367.5899,291.7649 L397.9162,291.7649 L457.2255,291.7649 L497.7111,332.2525" stroke="#FFFFFF" stroke-width="8.4" fill="none" />
  <path d="M519.6026,332.2525 L497.7111,332.2525" stroke="#FFFFFF" stroke-width="8.4" fill="none" />
  <path d="M316.949,372.7341 L357.4326,332.2505" stroke="#FFFFFF" stroke-width="8.4" fill="none" />
  <path d="M228.9554,284.5826 C225.063,287.7585 225.063,295.7713 228.9554,298.9472 C232.1313,302.8397 240.1441,302.8397 243.32,298.9472 C247.2125,295.7713 247.2125,287.7585 243.32,284.5826 C240.1441,280.6901 232.1313,280.6901 228.9554,284.5826 z" stroke="#FFFFFF" stroke-width="8.4" fill="none" />
  <path d="M276.6214,332.2485 L243.3201,298.9472" stroke="#FFFFFF" stroke-width="8.4" fill="none" />
  <path d="M129.1626,244.103 L95.85531,210.7957" stroke="#FFFFFF" stroke-width="8.4" fill="none" />
  <path d="M110.3493,50.07146 L120.4708,50.07146" stroke="#FFFFFF" stroke-width="8.4" fill="none" />
  <path d="M73.95978,210.7957 L95.85531,210.7957" stroke="#FFFFFF" stroke-width="8.4" fill="none" />
  <path d="M228.9555,284.5826 L195.6542,251.2813" stroke="#FFFFFF" stroke-width="8.4" fill="none" />
</svg>