<?xml version="1.0" encoding="UTF-8"?>
<svg xmlns="http://www.w3.org/2000/svg" viewBox="0 0 595.28 595.28">
  <defs>
    <style>
      .c {
        fill: #231f20;
      }

      .d {
        fill: #b65827;
        opacity: .2;
      }
    </style>
  </defs>
  <g id="a" data-name="Layer 1">
    <rect class="d" width="595.28" height="595.28"/>
  </g>
  <g id="b" data-name="Layer 2">
    <path class="c" d="M291.35,46.28l-.45,2.91,4.07-1.25,6.78,2.91,5.42,3.74,2.26,2.49,2.26,6.65,1.36,20.79,3.16,5.82-.9,1.66,3.16,4.99.9,9.56-2.26.42,3.16.83-.45,1.66.9,4.99-.9,1.66-1.81.83.9,3.33,1.36-1.25,4.07,9.56-.9,2.91-1.36,1.25,1.81,2.91,1.81,14.14-2.71-1.25-5.88-.83-9.94,6.24-1.36-3.33.9-2.08,1.81.83h2.71l.9-1.66-1.36-2.5-2.26,2.08-.45-2.08,4.07-3.74v-1.66l8.59,2.91,1.36-.83-1.81-7.07-2.26-2.08,2.26-2.5-1.81-3.33.9-4.57-3.16,2.08-.9,1.66.45,1.66,1.36.83-.45,3.74-4.52,3.74-.9,2.5-4.07,1.25-.45-5.82,4.07.83.9-1.66v-2.5h1.81l.9-1.66-1.81-2.91-.45-2.91,1.36-1.66-4.07-1.25-1.36.83-1.36,2.49-1.36-1.25,3.16-4.57h4.97l3.16-1.25,1.81-3.33-.45-1.66-7.68,1.25-.9,1.66-1.36-1.25v-2.91l3.62-.42-.45-3.74-2.71-6.24-2.26.42-5.42-1.66-2.71,2.08-1.81.42v-2.91l-1.36-.42-5.88,1.66-1.81-.42-1.36.83.45,3.33-1.36.42-2.26,2.91.9,3.74,1.81-2.08h4.07v-3.33l1.36-1.66,5.42.42,3.16,2.91-3.62,4.99,4.07-1.25,1.36-3.33-.45-3.33,5.88,2.08,1.36,3.33-3.16.42-.9.83-4.07.83,1.36,2.91,3.16,1.66-.45,1.66-2.71,2.91-1.36-1.25,1.36-2.91-.9-1.25-4.52.83.45,3.74-1.36.42-2.71-1.66-1.81,1.66-3.16-.83v2.08l7.23,3.74,4.07-2.08-.45,1.66-2.26,2.49-4.07-.42-3.62,2.5-.45,2.91-.9.83h-1.81v3.74l-1.81-.83-1.36-2.91-1.81-1.25v-4.57l-1.36-1.25,1.36-3.33-1.81.42-1.36,2.5-1.81.83.45,3.33-4.97,9.15-2.26-1.25h-1.81v1.66l3.62,2.91,4.97-.42-.45,2.08-5.42,4.16.45,1.25,3.62.83,1.81,1.25-.9,2.08.9,9.56-2.26,2.91-5.88-2.91-1.81.42v2.49l3.62,1.25-6.78,9.56h2.26v-1.66l2.26.42,2.71-1.66-.45-3.74,4.97.42-.45,3.74-5.42,4.99,1.81,2.91v2.91l-4.07,7.48,3.62,2.91-3.62,2.91,1.36,4.57-3.16,1.66-.9,1.66h4.07l-2.71,9.98-2.71-2.08.45-3.33-3.62-.42-3.16-2.08-1.81.42-1.81,2.5,6.78.83.9,3.33,2.71,3.33-.9,2.08.9,6.24-.45,1.66-1.36.42-3.62-2.08-3.16,4.99,1.81,1.25,1.81-.42,2.71-2.5h1.81l-.45,2.5.9,3.74,1.81,2.08,2.71,1.25,12.2,1.25.45,4.57-1.81,2.5,1.81.42,4.97-1.66v-1.66l-1.81-2.08v-1.66l1.36-.42,4.97.83.9-1.66,6.33,4.16.9-4.99,1.36-1.25,3.16,1.66v-9.56l4.52-9.56h-2.71l-.9,2.5-1.81-.42-.45-5.41,2.26-.42,4.97-4.16h2.26l1.81,2.91,4.97,4.99-.9,3.33,4.07,1.66,1.36-.83,1.81-4.57,1.81-.42,3.62,12.06-4.07.42.45,3.74,1.36.83,7.23-8.32-.9-2.08-3.16-1.25,5.42-4.57v-2.5l-2.71-2.08h-1.81l-2.71,2.08-1.81.42-.45-4.16-1.81-2.5,5.88-7.07-1.81-2.49-2.71-1.66v-3.74l-3.62-6.65,3.16-8.32-.9-.83-3.62,3.74h-2.26l.9-1.66-.45-2.91-5.42-4.99-.45-1.66-3.62.83-2.26-.83v2.08h1.36l.9,1.25-.9,1.25-4.97-.42,1.81,1.25.45,3.33h-1.81l-.45,2.49h-4.97v2.08l1.36,2.91,3.62,2.91.9-1.25-.9-3.33,3.62-1.25,2.71-2.08,3.16,1.25.45,1.25-4.07.83v1.25l1.81.83,5.88-3.33v1.66l-4.07,5.41-.45,2.91.9,1.66,1.81-.42,1.81-2.08h4.52l-1.36,2.5h-2.26l-.9,3.74.9,5.82-.9,1.25,3.16,3.74-2.71-1.66-3.16-9.56-1.81-2.5-3.16-1.25-.9-7.48-2.71-.42-.45,3.74,2.71,4.16-2.71,1.66-2.71-1.66-1.36,1.25,1.36,5.82-4.07-3.33-.45,3.33,2.71,2.08,3.62,1.25,2.71-7.07,4.97,1.25-4.97,2.08.45,4.16-1.36,2.49-6.78,4.57-1.81-6.65-2.71-4.16.9-3.74-1.81-2.91.9-1.25h3.62l-4.52-4.16-.45-1.66,3.16,1.66,1.81-.42-3.16-4.16-.45-3.74-1.36-1.25-2.26.83v-2.08l3.62-2.91-2.71-2.08-3.62-5.82,2.71-3.33,1.81.42,2.71,2.5-2.26,2.08v1.66h2.26l1.36-3.33h3.16l2.26,2.08,1.81-.83,4.07-7.07,3.62-1.25.9,1.66-.9,2.91,2.26,1.25,1.81-.42.45-.83.45,1.25.9-2.08,4.52-1.25-1.36-2.91-4.52.42-.9-1.25.9-1.66,3.62-1.25,1.81.42,3.62,4.99,1.36.83-4.97,6.65.45,2.91,3.16,2.08,1.81-.83,1.36-2.5,1.36-.83,2.71.42-1.36-1.25-4.97.42,4.07-5.41-.45-1.66-1.36-.83h-2.26l-.45-3.74-5.88-6.24.45-2.91,2.26-2.08h2.26l-.9,1.25,3.62.42,1.36,1.66-.9.83-1.81-.42-1.36.83.9,1.66,4.52-1.25,2.71,12.06-.45,3.33,3.16,4.99,2.71,12.06,3.62-.83-3.16,4.99,2.26,10.81-3.62,2.08,5.88.83,1.36,1.25-1.81,2.91,1.81,6.24-1.81.83h-3.62l-.9,1.25,3.16-.42,4.97,2.08,2.26,4.99h2.26l.9,1.25-4.97-.83,2.26,7.07,4.07,7.48-1.36,6.65,4.52,19.54v6.65l1.81,2.5-.9,1.66,3.62,5.41-.45,2.91,4.07,12.06,3.16,14.55v3.33l4.52,7.9.9,3.33v10.81l-1.36,2.49-4.07,2.91-6.78.42-16.27-.83-10.4.42-3.16-1.25-4.07-9.15-3.16-13.72-2.26-6.24-.45-6.24-5.42-15.8.45-3.33-3.62-4.57v-7.48l-1.81-7.9-5.42-3.74-10.4-2.49-4.07-3.74,1.36,3.33,2.71,2.91.45,2.5-9.04-1.25-1.36,1.25-4.97-2.5-2.71,1.66-6.78-1.66-14.01,1.66-5.88,9.56v7.9l-1.81,2.5-1.36,5.82-.9,13.72-5.88,21.62-4.97,17.46-6.33,1.66-12.66,1.25-7.68-1.25-2.71-1.66-1.81-4.57,4.07-13.31v-5.41l2.26-2.08,2.26-6.65,1.81-2.5.9-9.56-.9-2.91,5.88-8.32-.9-4.99,5.42-19.13.9-13.72,1.81-.42.45-7.07,4.52-15.39v-5.82l2.26-2.91v-7.9l1.81-2.5.9-3.33v-12.89l4.07-8.73.45-5.82,4.07-16.63,2.71-2.5.9-3.33-.45-10.4,1.36-2.91,2.71-2.5-3.62-5.41,2.26-2.5,2.71-1.25-.45-6.24,2.26-12.48,2.26-6.24.9-9.98,2.71-9.56v-6.24l2.26-7.07-.45-7.07,1.81-5.82,4.52-7.48,2.26-1.66h6.33l6.33-2.08h2.26l2.26-1.66,1.81-.42ZM219.03,331.12h1.36v-1.25h-1.36v1.25ZM222.65,327.8l-.45-1.66-2.26-.42v2.08l1.36.42,1.36-.42ZM229.43,326.97v-2.08h-2.26l.45,1.66,1.81.42ZM229.88,315.32l1.36-.83.9-2.08-1.36,1.25-.9,1.66ZM233.5,236.73l.45,1.66,4.07,1.66-.45-1.66-2.71-2.08-1.36.42ZM233.5,253.36h1.81l.45-1.66-.9-1.25-.9,1.66-.45,1.25ZM234.85,310.75l-.45-1.66v1.66h.45ZM239.82,216.35l1.36,6.24-.45,4.16h1.36l.9-1.25-1.81-4.57,2.26-2.08.9-4.99h-2.26l-.9,1.66-1.36.83ZM253.38,252.12h5.88l1.36-4.99,1.36-1.25,2.26,2.91,1.36-2.91-3.62-3.74-3.16,5.82-2.26.83-4.97-4.57-3.16-1.66h-7.68l9.49,5.82,2.26,2.5.9,1.25ZM242.99,236.31l1.36-3.33-1.81-1.25-1.36.42v2.91l1.81,1.25ZM242.99,237.98v-1.25l-1.81.83,1.81.42ZM242.08,282.47h1.36v-1.66h-1.36v1.66ZM243.44,251.28l1.81.42,2.71-1.25.45-2.91h-2.26l-2.71,3.74ZM244.34,271.66l2.26.83.45-2.91-1.81.83-.9,1.25ZM244.8,216.35l3.16-.83.45-1.66h-2.26l-.9.83-.45,1.66ZM247.06,240.89l.9-3.33-3.16-.83.45,3.74,1.81.42ZM245.7,179.34l1.81-.42v-1.25l-1.81-.83v2.5ZM247.96,205.13l-2.26-.42.45,1.25,1.81-.83ZM247.06,220.93l1.36,1.25h2.26v-1.66l1.36-1.25,5.88-1.66-4.52-2.5h-1.81l-.45,1.66-3.62,2.91-.45,1.25ZM247.06,234.23l6.33,2.49-1.81-3.33-.9-4.99h-1.81l-1.81,3.74v2.08ZM252.03,206.37l2.71-2.08-1.81-2.5-2.26-.42-.45,1.66,1.81,3.33ZM252.93,287.05l-2.26,1.25.9-.83,1.36-.42ZM252.03,259.18l1.81-.42,3.62,1.25,3.62-.42.9-1.66-1.81-1.25h-6.78l-1.81-.83-.45,1.66.9,1.66ZM254.29,226.33v-2.08h-1.81l-.9.83,1.36.83,1.36.42ZM253.38,282.47l1.36.42v1.25l-2.71,2.08,1.36-3.74ZM252.93,192.24l.45,1.66h1.81l1.36-1.25-1.81-.83-1.81.42ZM260.16,166.45l2.26-.83-.45-1.66-1.81-.83-.9,1.66.9,1.66ZM259.26,170.2h3.62l.9-2.08-1.36-.42-3.16.83v1.66ZM263.78,151.07l2.71.83-.45-1.66-1.81-.83-.45,1.66ZM264.23,106.57l.9,2.5.45-1.25,3.16-.83.45-1.25-2.26-2.08-.9,2.91h-1.81ZM267.85,115.72v-2.08l-2.26.83.9.83,1.36.42ZM270.56,128.2l-1.36-2.91-1.36-.42-.45,1.66.9,1.25,2.26.42ZM268.75,102v1.66l1.36.83.9-1.66-.9-1.66-1.36.83ZM268.75,248.79l5.42-2.08-.45-3.74-3.16-1.66-1.81,6.24v1.25ZM270.11,80.79l.9,3.33-1.81,2.5v1.25l2.71.42.9,1.66v2.49l1.81-.42,1.81-2.91-.45-4.16-1.36-3.33-2.71-1.25-1.81.42ZM269.2,252.53h1.81l.9.83h1.81l-1.36-2.91h-2.26l-.9,2.08ZM270.11,111.56l3.62-.42-3.16-2.08-.45,1.25v1.25ZM276.44,146.08l-2.26,2.08h-1.36l-.45-1.66,1.36-.83,2.71.42ZM280.05,138.59l-1.36,4.16-1.36.42-1.36-2.5h-2.26l.45-3.33,3.16-.42,2.71,1.66ZM274.18,65.41h1.36v-1.25h-1.36v1.25ZM287.74,79.96l.9,3.74-.45,2.5-.9.83-4.52.42-2.26,4.57-1.81.42,1.36,2.5v1.66h-2.26l-2.71-1.25-.9,1.25,3.16,2.08-2.71,2.08-.45,1.66,2.26,2.08,1.81-1.66,3.16.83,3.16-7.9,1.36-1.25h3.62l2.26-4.16,1.81-.42v2.08l1.81,2.91,1.81.42-.9-1.66,1.81-3.74-5.88-.83-.45-3.74.9-1.25,1.36.83.9,2.91,3.16-2.08-1.81-6.24-3.62-1.25-4.07-2.91-1.36,1.66-5.88-.83,1.81,2.5,2.26,1.25h2.26ZM283.67,121.54l.9-1.66-.45-2.08-3.16-1.66v-1.66l-6.78-.83,7.68,7.07,1.81.83ZM280.05,146.08l-1.36-.83h-4.52l2.26-1.66,3.16,1.25.45,1.25ZM278.7,79.54l-.45-2.08-1.81-.83-.45,1.25.9,1.25,1.81.42ZM278.7,82.04l4.52,2.5h1.81l.45-1.25-.9-1.66-3.62-2.08-1.81.83-.45,1.66ZM285.02,254.61l-.45-1.25-3.16-1.25,1.36,2.5h2.26ZM282.76,130.28l2.71-.42,2.26-2.08v-3.74l-4.07-1.66.45,2.08-1.81,4.57.45,1.25ZM287.28,62.91v-2.08l-1.36-.42.45,1.66.9.83ZM292.25,117.8l-.45-3.74-5.88-2.5,4.07,5.82,2.26.42ZM292.25,151.9l-1.81.83-4.07-.83,1.36-1.66,3.16.42,1.36,1.25ZM286.38,154.4l1.36.42-.45,2.5-.9-1.25v-1.66ZM300.84,242.55l.9,2.08-.45,1.25-1.81-1.25-4.97,4.57-4.97-2.5h-1.36l-.9,2.08,7.23,3.74,3.62-.42,5.42-4.57,3.16.42-2.26-5.82h-2.26l-1.36.42ZM294.52,153.15l-2.26,2.08,1.81.83.9,1.66-2.71,4.16v1.66l-3.62-.83-.9-2.91,1.81.42,1.81-1.25-.9-3.33,1.81-2.08,2.26-.42ZM290.9,71.64l-.45-2.08h-.9l.45.83.9,1.25ZM289.54,137.35l2.26-.83-2.26,2.08v-1.25ZM290.9,111.15l3.16-2.5,1.36-3.33-.9-.83-.45,1.66-3.16,2.08-.45,1.25.45,1.66ZM290.9,97.84l1.81-1.25.9.42-.45-1.25h-2.26v2.08ZM297.23,135.27l-1.36-.83-4.52,1.66-.45-2.5,1.81-1.25,3.16-.42,1.36.83v2.5ZM294.97,141.92l-1.81,4.16-1.81.42-.45-2.91,2.26-1.66h1.81ZM292.71,71.64l.9,4.57,4.07-.42,3.16,1.66.9-1.66-4.07-3.33.9-2.91h-1.81l-2.26,1.66-1.81.42ZM294.52,182.67h3.62l1.36-1.25-4.97-2.5-.9,2.91.9.83ZM294.97,163.54l3.62.83.9,1.25-.45,1.66-3.16.83-1.36-2.91.45-1.66ZM301.29,140.67l-1.81,1.66-1.36-.83,1.36-1.25,1.81.42ZM301.29,158.55l-1.36,2.5-1.36.83,1.36-2.91,1.36-.42ZM307.17,128.61l-2.71,2.08,1.36,2.91-2.26-.42-4.07-4.99,5.42-1.25,1.36.42.9,1.25ZM299.94,91.19l3.62-1.25.9-2.08-4.07,1.66-.45,1.66ZM300.84,156.47h1.36v1.25h-1.36v-1.25ZM303.1,94.52l3.62,4.16,2.26-.83.9-1.25-.9-4.16.9-1.66h-1.81l-4.07,2.5-.9,1.25ZM305.81,181.42l.9,2.08h-1.81l-.45.83-.9-.83,1.81-.83.45-1.25ZM304.46,253.36l1.81.42,3.62-1.25,2.71,2.08,3.16-.83-7.23-2.91-3.16.83-.9,1.66ZM307.17,235.48l.9,1.66,1.81.42.9-1.25-1.36-1.25-2.26.42ZM308.53,176.43l2.71,1.25.45,1.66h-1.81l-1.36-1.25v-1.66ZM310.79,230.91l1.36-.83v-1.66h-2.26l.9,2.5ZM310.79,206.37l1.36.83-.45,3.33-1.36-.83v-1.66l.45-1.66ZM314.4,144l.45,1.66,1.36.42,1.81-2.91-3.62.83ZM316.66,236.73v-2.49h-2.26l.9,1.66,1.36.83ZM318.92,282.47l-.45-3.33,1.81-1.66-5.88-1.25v2.08l3.62,2.91.9,1.25ZM315.76,250.04l6.33-5.41-6.33-2.08.45,1.66-.9,3.74.45,2.08ZM315.76,172.28h2.26l-.9-2.08-.9.83-.45,1.25ZM322.09,247.96l-2.71,4.57h-2.26l-.9,3.33.9,1.25,1.81-3.74,5.88-.83.9,1.25-2.71,2.5-1.81,3.33.45,1.66,1.81-.42,2.71-3.33,1.81-.42-1.36-3.74,2.71-2.08h2.71l1.81,1.25.9-4.57-.9-1.25-9.49,1.66-2.26-.42ZM318.92,200.14l3.62,1.25,1.36,2.5-2.26,1.66-3.62.42,1.81-2.5-1.81-.42.45-1.25.45-1.66ZM318.92,299.52h1.81v-2.08l-1.81-.83v2.91ZM321.63,272.49l3.62-1.25,4.07-5.41-4.07-.42-1.36-.83h-2.26l-1.36,4.99.45,1.66.9,1.25ZM320.28,292.04h2.71v-1.25h-2.71v1.25ZM321.63,236.31l.9-2.91-.45-3.74-1.36-.83.45,6.65.45.83ZM326.61,278.31l2.71-2.08-4.97-.42.45,2.08,1.81.42ZM324.35,302.85h2.26l.9-1.66h-3.16v1.66ZM325.7,287.05l1.36-4.99-1.81-.42-.45,3.33.9,2.08ZM325.7,195.15l1.81,1.66,3.16-1.25,4.52-4.99-6.33,1.25-2.26,1.66-.9,1.66ZM330.22,294.11l.45,2.91,1.81.42.45-4.16-2.71.83ZM330.67,255.86h1.81v-1.25h-1.81v1.25ZM335.2,210.95l.9-1.25-.45-3.74-1.36-1.25h-1.81l.45,4.16.9,1.25,1.36.83ZM337.91,304.09l-.9-1.25.9-4.16-4.07-1.25.45,5.82,2.26,1.66,1.36-.83ZM334.29,230.08l.9,7.49,1.36,2.91,1.36.42v-3.74l-1.36-4.99,1.81-.83.9-1.66h-3.62l-1.36.42ZM334.29,287.46l3.16.83v-5.41h-3.16v4.57ZM336.1,271.66l4.07-2.08v-1.66l-3.62-.83-1.36,3.33.9,1.25ZM336.55,226.33l3.16-1.66.45-1.66-1.81-.42-2.26,2.08.45,1.66ZM336.1,278.31l.45,2.08,4.52-2.08-3.62-.42-1.36.42ZM339.26,295.36l1.36,2.08h4.97l1.81.83-1.36-3.33h-4.97l-1.81.42ZM341.07,238.81l1.36-.42v-2.5l-1.36-.42-.9,1.66.9,1.66ZM341.52,262.51l3.16-2.08h-2.26l-1.36,1.25.45.83ZM344.69,226.33l-.45-2.08-1.81-.42.45,2.08,1.81.42ZM343.78,315.32l1.81.83,1.81-.42-1.36-3.33-2.26-.42.45,1.66-.45,1.66ZM347.85,284.97l-.45-3.33-2.26-1.25-.45,2.91,1.36,1.25,1.81.42ZM347.85,305.34l.9,1.66,1.81.42,1.81-.83-.45-1.66h-2.26l-1.81.42ZM347.85,312l1.81,2.08,3.62.42-1.81-2.91-1.81-.42-1.81.83ZM349.66,331.12l1.36-1.25h-1.36v1.25Z"/>
    <g>
      <path class="c" d="M92.4,557.12l-20.09-24.92v-15.58h12.35c2.15,0,3.9-1.04,5.26-3.12l37.17-62.63-29.22-63.81h-5.26l-20.09-25.14v-15.36h92.28l8.81,10.96v-10.96h50.27l20.09,25.03v13.21h-13.64c-2.29,0-3.97.97-5.05,2.9l-31.9,52.31c4.65,10.24,10.35,22.74,17.08,37.49,8.45,18.55,13.59,29.7,15.42,33.46s3.17,5.64,4.03,5.64h5.48l19.77,24.38v16.11h-93.46l-19.98-25.14v-15.36h13.86c1.5,0,1.93-.64,1.29-1.93l-6.66-14.39-17.08,28.68,10.1,12.68v15.47h-50.81ZM76.93,530.47h44.04v-9.24h-9.24c-1.72,0-3.1-.52-4.14-1.56-1.04-1.04-1.56-2.35-1.56-3.92,0-1.29.29-2.4.86-3.33l30.4-51.24,23.74,51.46c.43.86.64,1.83.64,2.9,0,1.58-.56,2.92-1.67,4.03s-2.6,1.66-4.46,1.66h-9.24v9.24h86.15v-9.24h-7.41c-4.73,0-8.02-2.11-9.88-6.34l-43.61-94.42,33.19-55c1.93-3.37,4.94-5.05,9.02-5.05h7.95v-9.24h-44.26v9.24h9.24c1.86,0,3.37.52,4.51,1.56,1.14,1.04,1.72,2.35,1.72,3.92,0,.93-.39,2.04-1.18,3.33l-24.81,41.14-19.12-41.36c-.43-1.07-.64-2.11-.64-3.12,0-1.57.55-2.88,1.67-3.92,1.11-1.04,2.59-1.56,4.46-1.56h9.24v-9.24h-85.4v9.24h6.45c4.73,0,8.02,2.11,9.88,6.34l39.21,84.33-38.78,64.88c-2.01,3.51-5.09,5.26-9.24,5.26h-7.73v9.24ZM94.98,521.24c2.36-1.65,4.04-3.62,5.05-5.91.21,2.15,1.11,4.12,2.69,5.91h-7.73ZM103.36,366.12l-1.5-3.33c-.21-.93-.64-1.72-1.29-2.36h38.46c-.72,1.65-1.07,3.47-1.07,5.48v.21h-34.59ZM108.41,377.18l-2.58-5.8h33.19c0,.36.14.82.43,1.4l1.93,4.4h-32.98ZM113.46,388.14l-2.58-5.69h32.98l2.69,5.69h-33.09ZM118.83,399.31l-2.69-5.69h32.98l2.69,5.69h-32.98ZM123.88,410.38l-2.69-5.69h32.98l2.69,5.69h-32.98ZM128.93,421.55l-2.69-5.69h32.98l2.69,5.69h-32.98ZM134.19,432.61l-2.69-5.8h33.09l2.58,5.8h-32.98ZM139.45,443.57l-2.9-5.69h33.09l2.58,5.69h-32.76ZM144.29,454.74l-2.58-5.69h32.98l2.58,5.69h-32.98ZM149.55,465.81l-2.58-5.69h32.76l2.58,5.69h-32.76ZM154.81,476.76l-2.79-5.69h32.98l2.69,5.69h-32.87ZM159.65,488.04l-2.58-5.8h32.76l2.69,5.8h-32.87ZM165.02,499l-2.69-5.69h32.76l2.69,5.69h-32.76ZM170.07,510.06c-.07-.14-.14-.36-.21-.64-.07-.29-.14-.46-.21-.54l-2.26-4.62h32.76l2.69,5.8h-32.76ZM171.14,394.26l5.91-9.45h-6.77c-1,0-1.72.25-2.15.75-.43.5-.39,1.22.11,2.15l2.9,6.55ZM169.85,521.24c.71-1.93,1.07-3.83,1.07-5.69h34.48l1.4,3.01,1.29,2.69h-38.24ZM198.64,364.83c-.21-1.86-.86-3.4-1.93-4.62h5.69c-.5.5-1.24,1.36-2.2,2.58-.97,1.22-1.49,1.9-1.56,2.04Z"/>
      <path class="c" d="M251.22,557.12l-20.09-24.92v-15.58h12.35c2.15,0,3.9-1.04,5.26-3.12l37.17-62.63-29.22-63.81h-5.26l-20.09-25.14v-15.36h92.28l8.81,10.96v-10.96h50.27l20.09,25.03v13.21h-13.64c-2.29,0-3.97.97-5.05,2.9l-31.9,52.31c4.65,10.24,10.35,22.74,17.08,37.49,8.45,18.55,13.59,29.7,15.42,33.46s3.17,5.64,4.03,5.64h5.48l19.77,24.38v16.11h-93.46l-19.98-25.14v-15.36h13.86c1.5,0,1.93-.64,1.29-1.93l-6.66-14.39-17.08,28.68,10.1,12.68v15.47h-50.81ZM235.75,530.47h44.04v-9.24h-9.24c-1.72,0-3.1-.52-4.14-1.56-1.04-1.04-1.56-2.35-1.56-3.92,0-1.29.29-2.4.86-3.33l30.4-51.24,23.74,51.46c.43.86.64,1.83.64,2.9,0,1.58-.56,2.92-1.67,4.03s-2.6,1.66-4.46,1.66h-9.24v9.24h86.15v-9.24h-7.41c-4.73,0-8.02-2.11-9.88-6.34l-43.61-94.42,33.19-55c1.93-3.37,4.94-5.05,9.02-5.05h7.95v-9.24h-44.26v9.24h9.24c1.86,0,3.37.52,4.51,1.56,1.14,1.04,1.72,2.35,1.72,3.92,0,.93-.39,2.04-1.18,3.33l-24.81,41.14-19.12-41.36c-.43-1.07-.64-2.11-.64-3.12,0-1.57.55-2.88,1.67-3.92,1.11-1.04,2.59-1.56,4.46-1.56h9.24v-9.24h-85.4v9.24h6.45c4.73,0,8.02,2.11,9.88,6.34l39.21,84.33-38.78,64.88c-2.01,3.51-5.09,5.26-9.24,5.26h-7.73v9.24ZM253.8,521.24c2.36-1.65,4.04-3.62,5.05-5.91.21,2.15,1.11,4.12,2.69,5.91h-7.73ZM262.18,366.12l-1.5-3.33c-.21-.93-.64-1.72-1.29-2.36h38.46c-.72,1.65-1.07,3.47-1.07,5.48v.21h-34.59ZM267.22,377.18l-2.58-5.8h33.19c0,.36.14.82.43,1.4l1.93,4.4h-32.98ZM272.27,388.14l-2.58-5.69h32.98l2.69,5.69h-33.09ZM277.64,399.31l-2.69-5.69h32.98l2.69,5.69h-32.98ZM282.69,410.38l-2.69-5.69h32.98l2.69,5.69h-32.98ZM287.74,421.55l-2.69-5.69h32.98l2.69,5.69h-32.98ZM293.01,432.61l-2.69-5.8h33.09l2.58,5.8h-32.98ZM298.27,443.57l-2.9-5.69h33.09l2.58,5.69h-32.76ZM303.1,454.74l-2.58-5.69h32.98l2.58,5.69h-32.98ZM308.37,465.81l-2.58-5.69h32.76l2.58,5.69h-32.76ZM313.63,476.76l-2.79-5.69h32.98l2.69,5.69h-32.87ZM318.46,488.04l-2.58-5.8h32.76l2.69,5.8h-32.87ZM323.84,499l-2.69-5.69h32.76l2.69,5.69h-32.76ZM328.88,510.06c-.07-.14-.14-.36-.21-.64-.07-.29-.14-.46-.21-.54l-2.26-4.62h32.76l2.69,5.8h-32.76ZM329.96,394.26l5.91-9.45h-6.77c-1,0-1.72.25-2.15.75-.43.5-.39,1.22.11,2.15l2.9,6.55ZM328.67,521.24c.71-1.93,1.07-3.83,1.07-5.69h34.48l1.4,3.01,1.29,2.69h-38.24ZM357.46,364.83c-.21-1.86-.86-3.4-1.93-4.62h5.69c-.5.5-1.24,1.36-2.2,2.58-.97,1.22-1.49,1.9-1.56,2.04Z"/>
      <path class="c" d="M413.37,557.12l-20.09-25.14v-15.36h11.28c3.15,0,5-.21,5.53-.64s.81-1.83.81-4.19v-127.83l-17.83-22.02v-15.36h91.52l19.98,25.03v15.47h-11.17c-3.51,0-5.52.23-6.02.7-.5.47-.75,2.35-.75,5.64v123.21l17.94,23.74v16.76h-91.2ZM397.9,530.47h84.54v-9.24h-6.66c-4.66,0-7.65-.68-8.97-2.04-1.33-1.36-1.99-4.33-1.99-8.92v-138.9c0-4.65.66-7.64,1.99-8.97s4.31-1.99,8.97-1.99h6.66v-9.24h-84.76v9.24h6.66c4.65,0,7.68.68,9.08,2.04,1.4,1.36,2.09,4.33,2.09,8.92v140.4c0,3.87-.72,6.41-2.15,7.63-1.43,1.22-4.37,1.83-8.81,1.83h-6.66v9.24ZM424.32,366.12c-.21-1.93-.72-3.83-1.5-5.69h34.48c-.64,1.43-1.07,3.33-1.29,5.69h-31.69ZM422.82,521.24c.86-2.29,1.36-4.19,1.5-5.69h31.69c.21,2.08.64,3.97,1.29,5.69h-34.48ZM424.54,377.18v-5.8h31.04v5.8h-31.04ZM424.54,388.14v-5.69h31.04v5.69h-31.04ZM424.54,399.31v-5.69h31.04v5.69h-31.04ZM424.54,410.38v-5.69h31.04v5.69h-31.04ZM424.54,421.55v-5.69h31.04v5.69h-31.04ZM424.54,432.61v-5.8h31.04v5.8h-31.04ZM424.54,443.57v-5.69h31.04v5.69h-31.04ZM424.54,454.74v-5.69h31.04v5.69h-31.04ZM424.54,465.81v-5.69h31.04v5.69h-31.04ZM424.54,476.76v-5.69h31.04v5.69h-31.04ZM424.54,488.04v-5.8h31.04v5.8h-31.04ZM424.54,499v-5.69h31.04v5.69h-31.04ZM424.54,510.06v-5.8h31.04v5.8h-31.04Z"/>
    </g>
  </g>
</svg>